<?xml version="1.0" encoding="utf-8" ?>
<svg xmlns="http://www.w3.org/2000/svg" xmlns:xlink="http://www.w3.org/1999/xlink" width="1024" height="1024">
	<path fill="#043C76" d="M0 0L1024 0L1024 1024L0 1024L0 0Z"/>
	<path fill="#4B92D6" d="M623.346 626.842C631.103 631.473 639.128 635.926 647.02 640.332C646.961 650.855 646.033 664.296 646.998 674.465C640.7 669.348 630.307 664.203 623.074 660.012C623.737 649.118 623.726 637.755 623.346 626.842Z"/>
	<path fill="#FCFCFB" d="M892.091 182.314C897.882 183.247 898.652 191.174 902.585 194.733C905.223 197.121 909.228 198.322 912.124 200.476C913.705 201.652 914.262 202.511 914.533 204.462C913.166 208.268 905.78 209.516 902.788 212.208C898.914 215.695 898.102 221.236 894.108 224.732C887.135 223.442 887.603 216.627 883.196 212.455C880.4 209.808 876.04 208.913 873.072 206.386C871.824 205.323 871.574 204.464 871.503 202.878C873.743 198.458 880.554 197.549 884.004 194.101C887.351 190.757 888.607 185.74 892.091 182.314Z"/>
	<path fill="#FCFCFB" d="M187.925 217.329C188.909 217.247 190.066 217.203 191.017 217.481C191.695 217.679 192.045 217.991 192.58 218.437C195.472 220.849 195.846 225.658 198.641 228.39C201.644 231.325 207.547 232.031 210.037 235.376C210.564 236.085 210.549 236.135 210.872 236.844C210.634 242.536 201.838 244.41 198.255 248.173C195.4 251.172 194.544 255.529 191.513 258.521C183.663 258.833 184.829 251.72 180.319 247.561C177.468 244.931 173.325 243.702 170.391 241.08C169.338 240.139 168.383 238.885 168.51 237.389C168.532 237.12 168.592 236.853 168.68 236.598C169.972 232.838 177.124 231.146 180.111 228.607C183.443 225.776 184.731 220.639 187.925 217.329Z"/>
	<path fill="#4B6DBA" d="M759.582 316.652C782.742 328.126 804.987 341.447 828.073 353.026C816 361.413 803.214 368.632 790.613 376.181C780.293 382.364 770.188 388.906 759.86 395.077C758.806 369.07 759.604 342.701 759.582 316.652Z"/>
	<path fill="#FCFCFB" d="M245.343 368.615C271.416 381.75 296.673 396.617 322.516 410.212L322.396 465.821C314.05 462.49 304.383 456.107 296.35 451.681L245.495 424.02L245.343 368.615Z"/>
	<path fill="#D38034" d="M507.13 408.428L507.6 408.443C508.24 419.361 507.812 430.457 507.786 441.402L507.688 511.66C507.679 523.803 507.141 536.28 507.789 548.387C502.334 550.683 496.8 554.906 491.786 558.119C485.652 554.799 479.358 551.619 473.459 547.899C474.666 545.295 474.618 439.306 474.313 427.089C484.432 419.693 496.835 415.531 507.13 408.428Z"/>
	<path fill="#4B92D6" d="M759.549 252.634C760.082 256.791 758.702 274.389 760.256 276.44L760.468 276.577C758.662 280.641 759.984 293.996 759.515 299.292L759.582 316.652C759.604 342.701 758.806 369.07 759.86 395.077C746.569 401.703 734.068 410.935 721.26 418.524L721.437 272.5C726.475 270.459 731.384 267.495 736.191 264.933L759.549 252.634Z"/>
	<path fill="#4B92D6" d="M706.11 280.241C707.354 283.426 706.561 412.912 706.527 426.911C693.897 434.448 681.317 442.084 668.516 449.328L668.488 374.57C668.505 361.06 668.999 347.403 668.438 333.918C668.825 323.269 668.295 312.589 668.594 301.93C681.588 295.504 693.432 287.158 706.11 280.241Z"/>
	<path fill="#D38034" d="M652.648 309.01C652.89 309.326 653.219 309.592 653.375 309.959C654.488 312.564 653.449 352.266 653.869 358.922C653.236 392.304 653.975 425.807 653.94 459.203C648.652 462.46 619.197 481.272 615.771 481.771C615.16 468.009 615.518 454.09 615.505 440.308L615.447 367.967C615.441 360.427 616.342 336.881 615.021 331.291C618.453 328.621 622.789 326.672 626.595 324.58C635.402 319.736 644.564 315.018 652.648 309.01Z"/>
	<path fill="#4B6DBA" d="M600.081 340.274C600.861 341.438 600.787 341.993 600.869 343.406C601.782 359.108 600.98 375.35 600.978 391.099L601.017 491.082C592.523 496.799 583.588 501.972 574.848 507.311C570.818 509.772 566.459 513.079 562.165 514.916C561.431 496.078 561.67 477.092 561.616 458.236L561.494 363.453C573.853 355.103 587.572 348.505 600.081 340.274Z"/>
	<path fill="#FCFCFB" d="M834.47 496.745C839.663 501.558 850.656 505.431 857.012 510.229C849.437 516.812 839.478 521.957 830.939 527.25L783.154 556.863L694.135 612.122C683.114 618.956 672.068 625.717 660.903 632.314C656.39 634.981 651.804 638.22 647.02 640.332C639.128 635.926 631.103 631.473 623.346 626.842C628.179 622.758 634.903 619.407 640.324 616.041L683.383 589.76L789.299 524.564C804.333 515.25 819.563 506.265 834.47 496.745Z"/>
	<path fill="#84C9F0" d="M857.012 510.229C856.212 522.076 857.046 534.441 857.006 546.348C836.008 559.799 653.082 674.354 647.639 674.837L646.998 674.465C646.033 664.296 646.961 650.855 647.02 640.332C651.804 638.22 656.39 634.981 660.903 632.314C672.068 625.717 683.114 618.956 694.135 612.122L783.154 556.863L830.939 527.25C839.478 521.957 849.437 516.812 857.012 510.229Z"/>
	<path fill="#FCFCFB" d="M262.374 277.931C271.232 282.305 279.947 287.109 288.703 291.691C300.122 298.12 311.92 303.878 323.456 310.095L457.762 381.636L493.287 400.557C497.717 402.964 503.214 405.302 507.13 408.428C496.835 415.531 484.432 419.693 474.313 427.089C465.488 423.539 455.669 417.326 447.066 412.744L388.223 381.252L228.07 297.329C232.301 295.364 236.424 292.774 240.513 290.5C247.865 286.411 255.245 282.405 262.374 277.931Z"/>
	<path fill="#FCFCFB" d="M507.348 118.267C544.339 138.865 582.346 157.727 619.534 177.993L696.561 219.434C717.396 230.706 738.134 242.496 759.549 252.634L736.191 264.933C731.384 267.495 726.475 270.459 721.437 272.5C717.049 269.292 712.365 266.57 707.617 263.937C680.797 248.592 653.198 234.392 625.958 219.801L527.176 166.453C509.624 157.048 491.846 148.02 474.503 138.235C484.23 130.835 496.615 124.22 507.348 118.267Z"/>
	<path fill="#FAB92F" d="M408.988 161.592C420.779 154.037 433.126 147.137 445.164 139.966C466.141 151.822 487.977 162.307 509.114 173.895L610.201 228.277C630.406 239.076 650.395 250.301 670.892 260.545C682.692 266.895 694.912 272.862 706.11 280.241C693.432 287.158 681.588 295.504 668.594 301.93C649.346 289.407 627.937 279.441 607.692 268.609L477.677 198.732L438.237 177.728C428.416 172.546 418.355 167.571 408.988 161.592Z"/>
	<path fill="#84C9F0" d="M385.548 166.951L652.648 309.01C644.564 315.018 635.402 319.736 626.595 324.58C622.789 326.672 618.453 328.621 615.021 331.291C607.554 328.968 595.341 321.218 587.942 317.227L539.908 291.725L354.408 193.379L346.988 189.279C359.573 181.409 372.934 174.835 385.548 166.951Z"/>
	<path fill="#84C9F0" d="M330.122 197.666C341.696 203.166 352.631 210.342 364.458 215.256C367.742 217.756 372.217 219.558 375.898 221.474L397.191 232.733L497.112 285.306L570.623 324.443C579.927 329.387 590.572 336.307 600.081 340.274C587.572 348.505 573.853 355.103 561.494 363.453C551.498 359.485 541.711 352.887 532.131 347.875L451.535 305.167L343.128 248.043L310.836 231.234C303.859 227.603 296.294 224.178 289.918 219.549C294.458 217.833 298.869 215.068 303.128 212.75C312.181 207.823 321.173 202.781 330.122 197.666Z"/>
	<path fill="#4B6DBA" d="M557.376 575.89C558.422 583.118 557.544 594.182 557.535 601.77L557.466 658.782L557.277 871.211L501.151 905.587C500.261 904.412 500.399 903.474 500.354 902.002C500.074 892.827 500.354 883.542 500.32 874.353L500.299 803.971L500.077 611.472C518.889 599.153 538.525 588.13 557.376 575.89Z"/>
	<path fill="#4B92D6" d="M288.945 276.788L288.915 241.033C288.909 234.93 288.649 228.691 288.967 222.601C289.038 221.231 288.875 220.478 289.918 219.549C296.294 224.178 303.859 227.603 310.836 231.234L343.128 248.043L451.535 305.167L532.131 347.875C541.711 352.887 551.498 359.485 561.494 363.453L561.616 458.236C561.67 477.092 561.431 496.078 562.165 514.916L538.017 529.822C532.724 533.133 527.486 536.748 522.059 539.821L521.96 400.962L385.659 327.794L327.222 296.949C314.455 290.274 301.457 283.935 288.945 276.788Z"/>
	<path fill="#84C9F0" d="M759.515 299.292C759.984 293.996 758.662 280.641 760.468 276.577C793.743 294.086 826.728 312.242 859.787 330.161C867.427 334.302 875.074 338.393 882.822 342.327C888.637 345.279 894.761 348.043 900.333 351.422C887.008 356.942 874.886 364.595 862.572 372.026C843.917 383.284 825.538 394.985 806.821 406.138L587.786 539.543L529.303 575.424C516.84 583.17 504.517 591.585 491.553 598.458C480.951 593.385 470.752 587.332 460.467 581.646L404.197 550.626L200.313 440.824L153.217 415.737C144.229 410.912 135.221 405.517 125.946 401.287C150.477 385.696 175.418 370.654 200.426 355.843C208.42 351.108 216.514 344.628 225.009 341C224.904 349.014 224.91 357.05 224.504 365.055C205.839 377.357 186.465 388.817 166.972 399.763C185.973 410.281 205.635 419.783 224.764 430.107L387.694 518.359L450.551 552.542C464.433 560.085 478.807 567.267 492.072 575.848C508.176 564.839 525.241 554.921 541.874 544.718L618.159 497.892L857.293 351.214L790.013 315.794C779.855 310.354 769.907 304.253 759.515 299.292Z"/>
	<path fill="#FAB92F" d="M225.009 341C225.082 334.865 224.166 303.117 225.238 299.531C225.642 298.179 226.927 297.894 228.07 297.329L388.223 381.252L447.066 412.744C455.669 417.326 465.488 423.539 474.313 427.089C474.618 439.306 474.666 545.295 473.459 547.899C451.565 536.583 430.137 524.241 408.542 512.366C384.351 499.064 359.966 486.127 335.912 472.577L335.975 401.947C323.831 393.932 310.264 387.37 297.476 380.413L233.025 345.446C232.853 369.534 233.671 393.635 233.48 417.733C230.411 416.343 227.393 414.835 224.365 413.361C224.194 397.274 224.291 381.14 224.504 365.055C224.91 357.05 224.904 349.014 225.009 341Z"/>
	<path fill="#FCFCFB" d="M376.579 394.345C381.394 395.275 441.932 428.672 443.43 430.818C444.876 432.891 445.167 435.268 444.631 437.694C444.137 439.936 443.341 440.755 441.476 441.937C431.613 437.558 378.761 409.901 374.719 404.712C373.384 402.997 372.608 401.129 372.974 398.938C373.328 396.822 374.944 395.513 376.579 394.345Z"/>
	<path fill="#4B6DBA" d="M130.892 420.759C156.28 433.25 181.186 446.947 206.093 460.369L303.696 513.125C364.482 546.197 425.8 578.529 485.885 612.862L485.789 901.244C483.626 901.572 162.145 727.156 130.84 710.143C129.865 649.555 130.634 588.831 130.587 528.231L130.537 459.301C130.536 446.531 129.979 433.484 130.892 420.759Z"/>
	<path fill="#043C76" d="M245.714 548.182C254.128 552.404 262.349 557.189 270.614 561.703L315.182 586.093C323.838 590.87 332.402 596.135 341.318 600.383L341.431 650C351.373 655.632 361.397 661.104 371.435 666.563C370.632 704.343 371.489 742.332 371.412 780.131C358.152 773.435 345.159 766.122 332.094 759.049L239.253 708.842C227.787 702.763 214.866 694.247 202.965 689.624L202.951 582.887C205.337 581.431 207.599 579.779 209.886 578.174C221.712 584.696 233.666 591.169 245.862 596.974C245.829 580.712 245.58 564.444 245.714 548.182Z"/>
	<path fill="#FAB92F" d="M271.54 595.757C277.548 598.366 283.147 601.963 288.862 605.158C296.887 609.645 304.982 613.992 312.949 618.584L312.965 633.772C300.125 628.553 284.064 618.304 271.595 611.303C271.507 606.123 271.546 600.938 271.54 595.757Z"/>
	<path fill="#FCFCFB" d="M215.984 597.307C239.66 609.433 262.576 623.197 285.869 636.05C309.666 649.182 334.138 661.545 357.527 675.377L357.435 682.782C344.08 674.861 329.789 668.287 316.188 660.75C282.832 642.268 249.585 623.483 215.974 605.472L215.984 597.307Z"/>
	<path fill="#FAB92F" d="M215.974 605.472C249.585 623.483 282.832 642.268 316.188 660.75C329.789 668.287 344.08 674.861 357.435 682.782C356.866 707.196 357.276 731.626 357.033 756.044C329.674 740.426 301.512 726.003 273.847 710.907C255.024 700.635 235.25 688.404 215.97 679.559C215.896 654.865 215.724 630.166 215.974 605.472Z"/>
</svg>
