<?xml version="1.0" encoding="utf-8" ?>
<svg xmlns="http://www.w3.org/2000/svg" xmlns:xlink="http://www.w3.org/1999/xlink" width="904" height="904">
	<path fill="#4338CA" transform="scale(0.882813 0.882813)" d="M0 0L1024 0L1024 1024L0 1024L0 0Z"/>
	<path fill="#FF9D38" transform="scale(0.882813 0.882813)" d="M120.355 228.243C122.569 228.606 122.651 228.512 124.035 230.25C124.09 232.349 123.645 232.65 122.507 234.347C120.91 233.945 120.341 233.529 119.151 232.39C119.006 230.259 119.308 230.017 120.355 228.243Z"/>
	<path fill="#F7E9E8" transform="scale(0.882813 0.882813)" d="M668.424 929.733C669.013 929.817 669.934 929.884 670.5 930.141C671.815 930.738 672.283 931.473 672.825 932.75C672.688 934.691 672.1 935.557 670.955 937.102L668.75 936.931C667.153 935.761 667.025 935.483 666.289 933.75C666.555 931.663 667.098 931.305 668.424 929.733Z"/>
	<path fill="#EBD5FF" transform="scale(0.882813 0.882813)" d="M445.938 270.763L448.25 271.447C449.297 272.047 449.887 272.796 450.08 274C450.437 276.219 449.143 277.109 447.754 278.524C447.19 278.391 446.524 278.273 446 278.002C444.401 277.174 444.156 276.301 443.562 274.75C444.005 272.73 444.59 272.277 445.938 270.763Z"/>
	<path fill="#F7E9E8" transform="scale(0.882813 0.882813)" d="M618.097 76.9041C619.252 76.9242 620.146 77.1377 621.25 77.4709C622.392 78.608 623.026 78.964 623.059 80.75C623.086 82.1522 621.71 83.445 620.85 84.4337C619.71 84.5084 618.842 84.2516 617.75 83.9675C616.628 82.7407 615.985 82.3267 615.98 80.5C615.976 79.11 617.247 77.8908 618.097 76.9041Z"/>
	<path fill="#F8D54C" transform="scale(0.882813 0.882813)" d="M77.616 486.227C77.9521 484.801 78.2703 483.314 78.9088 481.988C80.8374 477.983 83.9554 476.074 87.986 474.546C87.8346 476.973 83.6605 482.624 81.795 484.309C80.6365 485.354 79.0813 485.8 77.616 486.227Z"/>
	<path fill="#F7E9E8" transform="scale(0.882813 0.882813)" d="M90.9228 322.787C92.3832 322.893 93.5965 322.995 94.75 324.015C95.6288 324.791 96.0384 326.106 95.9914 327.25C95.9164 329.075 94.6126 329.911 93.3862 330.995C92.1375 330.845 91.1201 330.646 90.07 329.897C88.9914 329.129 88.4566 327.78 88.4646 326.5C88.4749 324.868 89.8432 323.84 90.9228 322.787Z"/>
	<path fill="#EBD5FF" transform="scale(0.882813 0.882813)" d="M166.846 335.482C168.508 335.549 169.521 335.704 171.005 336.473C172.081 337.812 172.659 338.724 172.493 340.5C172.305 342.519 171.093 343.497 169.612 344.714C168.054 344.669 166.73 344.621 165.5 343.494C164.289 342.385 163.85 340.842 163.977 339.25C164.108 337.615 165.709 336.509 166.846 335.482Z"/>
	<path fill="#FEA5A1" transform="scale(0.882813 0.882813)" d="M365.418 340.293C365.399 339.733 365.357 339.321 365.484 338.75C365.833 337.176 367.157 335.746 368.463 334.875C369.915 333.907 371.081 333.897 372.722 334.25C374.473 335.416 375.255 336.502 376.253 338.339C373.808 341.034 372.178 342.265 368.744 343.565L368.577 343.653L365.418 340.293Z"/>
	<path fill="#FEA5A1" transform="scale(0.882813 0.882813)" d="M240.382 410.992C239.319 410.035 237.757 408.84 237.042 407.598C236.282 406.279 236.398 404.69 237.031 403.362C237.752 401.851 239.207 400.649 240.831 400.25C242.646 399.805 243.495 400.516 244.942 401.4C245.078 403.882 245.628 406.352 243.873 408.363C242.817 409.574 241.811 410.29 240.382 410.992Z"/>
	<path fill="#F7E9E8" transform="scale(0.882813 0.882813)" d="M156.305 490.851C156.329 486.35 155.971 481.461 157.17 477.099L158.531 490.803C162.929 490.929 167.447 490.849 171.775 491.687C169.837 492.097 167.881 492.508 165.9 492.631C163.783 492.763 159.374 492.204 157.936 493.701C158.511 496.716 158.314 500.757 157.68 503.75L156.941 504.19C155.66 502.385 156.165 495.462 156.099 492.993L155.677 492.923C152.677 492.466 147.358 493.269 145.066 491.75C147.024 490.26 153.597 490.9 156.305 490.851Z"/>
	<path fill="#F8D54C" transform="scale(0.882813 0.882813)" d="M150.25 767.909L151.559 769.5C153.603 772.293 155.494 773.586 158.415 775.411C154.182 778.12 153.159 779.235 151.072 783.819C149.836 782.168 149.059 780.069 147.728 778.533C146.46 777.067 143.928 775.846 142.27 774.808L147.452 772.979L150.25 767.909Z"/>
	<path fill="#FF9D38" transform="scale(0.882813 0.882813)" d="M211.095 192.785C212.532 194.518 213.892 196.418 215.464 198.028C216.6 199.191 218.473 200.248 219.04 201.75C215.497 202.707 213.966 205.267 212.108 208.17L211.448 207.409C209.516 204.181 207.298 202.817 204.063 201.142C207.659 198.485 209.166 196.839 211.095 192.785Z"/>
	<path fill="#FEA5A1" transform="scale(0.882813 0.882813)" d="M934.473 741.953L936.892 742.343C938.447 742.706 939.638 743.692 940.392 745.099C941.395 746.97 940.999 748.83 940.424 750.75C939.186 752.269 938.197 752.919 936.385 753.652L935.932 753.597C933.85 753.207 932.047 752.361 930.887 750.518C930.021 749.144 930.013 747.676 930.424 746.142C931.009 743.959 932.657 743.087 934.473 741.953Z"/>
	<path fill="#C0BFFF" transform="scale(0.882813 0.882813)" d="M876.015 681.979L877.641 681.954C879.299 681.982 880.705 682.401 881.804 683.696C882.849 684.926 883.183 686.985 882.903 688.537C882.467 690.953 880.76 692.075 878.84 693.307L877.25 693.362C875.763 693.296 874.368 692.729 873.41 691.57C872.251 690.168 871.63 688.12 872.042 686.316C872.535 684.155 874.262 683.074 876.015 681.979Z"/>
	<path fill="#F7E9E8" transform="scale(0.882813 0.882813)" d="M825.045 814.238L826.146 814.867C828.315 818.868 830.486 820.567 834.191 823.083L828.519 826.27C827.789 827.986 826.775 829.595 825.847 831.211L825.479 831.26C824.094 830.195 823.389 827.782 822.659 826.18C821.045 825.431 818.351 824.613 817.508 823C818.393 821.514 820.698 820.666 822.198 819.871L825.045 814.238Z"/>
	<path fill="#FEA5A1" transform="scale(0.882813 0.882813)" d="M841.988 586.428L850.638 596.04L841.853 604.645C839.085 603.708 834.81 598.006 832.643 595.754L841.988 586.428Z"/>
	<path fill="#FEA5A1" transform="scale(0.882813 0.882813)" d="M116.448 577.496C122.796 571.467 129.949 567.012 138.805 565.799C137.977 566.439 137.29 567.023 136.299 567.389L136.124 568.2C135.323 571.385 132.045 574.166 129.498 575.998L128.774 576.549C124.185 580.012 117.896 583.868 112.328 585.357C111.508 585.576 110.805 585.97 110.054 586.354C111.786 583.045 114.024 580.306 116.448 577.496Z"/>
	<path fill="#FF6945" transform="scale(0.882813 0.882813)" d="M99.2056 477.654C101.455 480.305 103.166 483.253 102.968 486.866C102.785 490.225 100.699 493.248 98.2136 495.378C95.704 497.529 92.9179 498.83 89.6481 499.292C86.8246 498.62 84.5041 497.92 82.0613 496.283C89.32 493.879 90.9982 489.141 94.9531 483.5C96.3893 481.452 97.9667 479.912 99.2056 477.654Z"/>
	<path fill="#F7E9E8" transform="scale(0.882813 0.882813)" d="M353.663 124.747C354.65 125.437 354.97 126.376 355.487 127.411C358.073 132.58 360.588 133.256 365.845 135.085C363.332 136.583 359.907 138.268 357.919 140.413C356.252 142.211 355.093 145.385 354.017 147.605C351.983 146.428 350.987 142.01 349.111 140.119C347.334 138.329 344.628 137.02 342.447 135.756C344.709 134.604 347.479 133.36 349.263 131.55C351.051 129.738 352.38 126.95 353.663 124.747Z"/>
	<path fill="#FF9D38" transform="scale(0.882813 0.882813)" d="M632.097 232.198L638.754 231.342L641.379 242.072C641.544 243.252 641.669 244.069 641.392 245.25C637.146 246.513 632.238 246.688 627.843 247.149C626.377 242.675 625.616 237.848 624.702 233.23L632.097 232.198Z"/>
	<path fill="#F8D54C" transform="scale(0.882813 0.882813)" d="M632.097 232.198L638.754 231.342L641.379 242.072C638.526 242.643 638.196 242.745 635.75 241.316C634.891 241.464 634.122 241.525 633.25 241.512L632.633 240.441C632.135 239.047 632.35 237.658 632.884 236.334C633.263 235.394 633.502 234.841 633.329 233.813C633.137 232.671 632.962 232.828 632.097 232.198Z"/>
	<path fill="#F7E9E8" transform="scale(0.882813 0.882813)" d="M322.245 882.903C323.312 884.1 323.789 886.293 324.479 887.75C326.335 891.672 331.654 893.438 335.364 895.246C332.579 896.378 329.812 897.448 327.229 899.004C325.325 901.972 323.926 904.999 322.541 908.237L322.36 907.741C321.585 905.655 320.804 903.153 319.499 901.348C317.16 898.113 312.424 896.77 308.886 895.135L312.973 893.53C318.473 891.131 320.166 888.261 322.245 882.903Z"/>
	<path fill="#F7E9E8" transform="scale(0.882813 0.882813)" d="M273.235 320.008L274.54 321.307C266.103 326.007 255.988 329.052 246.981 332.658C238.12 336.205 229.452 340.345 220.569 343.784C219.661 342.21 217.75 339.808 217.75 338.043L220.472 337.098L273.235 320.008Z"/>
	<path fill="#C9094A" transform="scale(0.882813 0.882813)" d="M216.513 331.405C222.381 330.647 228.996 327.451 234.707 325.644C246.601 321.88 259.109 319.035 270.54 314.018L270.245 319.144C265.948 320.057 261.78 321.608 257.578 322.88C248.872 325.516 240.317 328.252 231.726 331.248C228.5 332.373 221.937 333.583 219.881 336.149C218.67 336.245 218.27 336.443 217.15 335.898L216.513 331.405Z"/>
	<path fill="#FF9D38" transform="scale(0.882813 0.882813)" d="M88.8547 474.015C93.3279 474.423 95.5286 474.935 99.2056 477.654C97.9667 479.912 96.3893 481.452 94.9531 483.5C90.9982 489.141 89.32 493.879 82.0613 496.283C78.8383 493.188 77.9272 490.617 77.616 486.227C79.0813 485.8 80.6365 485.354 81.795 484.309C83.6605 482.624 87.8346 476.973 87.986 474.546L88.8547 474.015Z"/>
	<path fill="#C0BFFF" transform="scale(0.882813 0.882813)" d="M226.586 851.546L231 851.608C233.226 851.989 235.504 853.793 236.669 855.694C238.048 857.946 238.493 860.905 237.735 863.457C236.864 866.389 234.035 868.195 231.473 869.476C230.021 869.562 228.266 869.708 226.833 869.433C224.542 868.993 222.246 866.834 221.18 864.833C219.862 862.359 219.72 859.807 220.621 857.201C221.662 854.19 223.882 852.935 226.586 851.546Z"/>
	<path fill="#C0BFFF" transform="scale(0.882813 0.882813)" d="M826.625 695.015C828.19 695.013 829.988 694.889 831.462 695.484C833.991 696.504 835.998 698.798 836.981 701.305C837.797 703.385 837.797 706.427 836.773 708.441C835.267 711.404 832.935 712.566 829.915 713.556C828.36 713.581 826.773 713.641 825.29 713.1C822.829 712.203 820.819 710.196 819.78 707.815C818.7 705.344 818.771 702.837 819.918 700.386C821.267 697.502 823.813 696.091 826.625 695.015Z"/>
	<path fill="#FEA5A1" transform="scale(0.882813 0.882813)" d="M598.56 673.496C599.071 672.117 599.577 670.615 600.326 669.345C601.171 667.913 602.46 666.82 603.788 665.854C614.272 658.229 625.899 651.737 636.892 644.839C641.929 641.679 646.97 638.526 652.028 635.399C654.74 633.722 657.638 631.558 660.75 630.791C662.895 631.029 663.88 632.081 665.449 633.481C649.373 642.101 633.618 651.928 618.051 661.481C611.602 665.439 605.413 670.332 598.56 673.496Z"/>
	<path fill="#A288FF" transform="scale(0.882813 0.882813)" d="M924.111 213.542C926.237 213.417 928.437 213.471 930.412 214.371C933.195 215.638 935.581 218.493 936.424 221.42C937.215 224.168 936.369 227.563 934.831 229.896C933.077 232.557 930.941 233.635 927.918 234.355C926.121 234.333 924.124 234.296 922.428 233.651C919.873 232.68 917.822 230.601 916.681 228.143C915.543 225.692 915.481 222.761 916.499 220.25C917.911 216.764 920.814 214.929 924.111 213.542Z"/>
	<path fill="#FF6945" transform="scale(0.882813 0.882813)" d="M244.942 401.4C247.993 405.561 249.863 410.826 252.519 415.318C255.826 421.085 258.929 426.954 262.149 432.769C263.893 435.918 266.068 439.042 267.315 442.422L261.112 448.786C259.532 444.315 255.654 439.703 253.263 435.511C248.682 427.481 244.524 419.252 240.382 410.992C241.811 410.29 242.817 409.574 243.873 408.363C245.628 406.352 245.078 403.882 244.942 401.4Z"/>
	<path fill="#FF9D38" transform="scale(0.882813 0.882813)" d="M740.743 839.668C743.827 840.075 746.757 840.933 749.175 842.976C751.538 844.973 753.28 848.151 753.528 851.25C753.888 855.743 753.063 859.502 749.994 862.977C747.044 866.318 743.971 867.341 739.676 867.701C737.028 867.388 734.569 866.942 732.3 865.448C729.463 863.58 727.205 860.306 726.555 856.944C725.863 853.359 726.461 848.722 728.619 845.75C731.706 841.499 735.828 840.308 740.743 839.668Z"/>
	<path fill="#F7E9E8" transform="scale(0.882813 0.882813)" d="M917.274 610.078C918.076 612.89 918.569 615.853 919.782 618.524C921.792 622.951 926.482 628.202 930.739 630.608C934.029 632.467 937.527 633.399 941.121 634.459C932.895 636.413 926.908 640.229 922.391 647.56C920.038 651.379 918.628 655.444 917.794 659.845C916.283 655.533 914.671 650.906 911.833 647.257L911.52 646.774C906.207 639.135 899.964 636.254 890.99 634.484C894.69 634.067 898.13 633.33 901.475 631.609C910.12 627.162 914.363 618.971 917.274 610.078Z"/>
	<path fill="#FF6945" transform="scale(0.882813 0.882813)" d="M376.253 338.339L415.377 411.843L407.092 416.813L369.704 346.834L368.577 343.653L368.744 343.565C372.178 342.265 373.808 341.034 376.253 338.339Z"/>
	<path fill="#F7E9E8" transform="scale(0.882813 0.882813)" d="M887.411 345.481L887.585 345.712L889.912 351.5C892.327 356.275 895.903 362.127 900.336 365.23C904.745 368.316 910.445 369.791 915.507 371.411L908.468 373.221C905.691 374.166 902.326 375.373 899.936 377.085C894.113 381.257 889.859 388.906 886.751 395.195L886.105 395.25L882.797 387.937C877.497 377.299 870.91 372.767 859.721 368.989C864.59 368.167 869.148 366.937 873.5 364.546C880.573 360.66 885.204 353.017 887.411 345.481Z"/>
	<path fill="#C0BFFF" transform="scale(0.882813 0.882813)" d="M535.223 124.91C547.16 119.973 560.49 116.041 573.377 114.837C577.271 114.473 581.381 114.088 585.09 115.593C586.659 116.23 587.562 117.201 588.633 118.474C589.086 120.672 588.423 122.258 587.218 124.158C584.295 128.767 580.043 132.736 575.92 136.251C566.617 144.183 555.971 150.664 545.547 157.003C544.67 153.194 544.402 147.895 544.68 143.989C543.6 139.135 541.435 134.621 538.842 130.401C537.136 128.903 536.176 126.923 535.223 124.91Z"/>
	<path fill="#4338CA" transform="scale(0.882813 0.882813)" d="M538.842 130.401C543.115 129.518 555.189 125.19 558.66 127.819C559.342 128.335 559.364 128.414 559.87 129C560.031 131.336 559.082 132.782 557.56 134.507C555.119 137.271 548.2 142.924 544.68 143.989C543.6 139.135 541.435 134.621 538.842 130.401Z"/>
	<path fill="#FF6945" transform="scale(0.882813 0.882813)" d="M665.449 633.481C667.077 637.152 667.021 653.26 665.593 656.899C664.8 658.92 662.892 660.64 661.182 661.919C655.932 665.846 650.105 669.124 644.5 672.525C637.467 676.792 630.53 681.22 623.57 685.605C619.754 688.009 615.949 690.43 612.185 692.913C610.031 694.335 607.706 696.183 605.322 697.183C604.017 697.73 602.702 697.633 601.456 696.991C600.242 696.366 598.867 695.242 598.598 693.843C598.249 692.03 598.506 689.68 598.51 687.801C598.52 683.048 598.726 678.242 598.56 673.496C605.413 670.332 611.602 665.439 618.051 661.481C633.618 651.928 649.373 642.101 665.449 633.481Z"/>
	<defs>
		<linearGradient id="gradient_0" gradientUnits="userSpaceOnUse" x1="543.48175" y1="142.76041" x2="497.54736" y2="146.2542">
			<stop offset="0" stop-color="#F6F6FF"/>
			<stop offset="1" stop-color="#99D6E3"/>
		</linearGradient>
	</defs>
	<path fill="url(#gradient_0)" transform="scale(0.882813 0.882813)" d="M520.242 110.574C525.617 114.246 531.963 119.189 535.223 124.91C536.176 126.923 537.136 128.903 538.842 130.401C541.435 134.621 543.6 139.135 544.68 143.989C544.402 147.895 544.67 153.194 545.547 157.003L540.504 159.898L536.577 161.88L564.645 219.25L564.153 219.498L534.958 162.519L523.739 168.507C532.182 181.615 538.459 196.5 545.064 210.603C550.912 223.088 557.21 235.5 562.457 248.25L562.154 248.45L522.644 169.071L511.642 174.515C519.634 190.354 527.352 206.264 535.156 222.19C539.671 231.403 545.274 241.036 548.557 250.75L548.189 250.981L509.904 175.441L499.247 180.793C499.401 177.978 500.538 175.895 501.455 173.298C502.709 169.746 503.821 166.097 504.937 162.5C510.272 145.308 515.678 127.983 520.242 110.574Z"/>
	<path fill="#F7E9E8" transform="scale(0.882813 0.882813)" d="M220.937 211.459C223.296 211.179 225.018 210.95 227.25 211.926L227.962 212.234C233.653 214.813 239.15 218.914 244.525 222.163C255.677 228.903 266.917 235.457 277.96 242.382C270.628 247.94 262.904 252.661 255.166 257.612C251.523 259.943 247.055 262.29 243.892 265.222C237.823 267.586 231.638 269.756 225.511 271.97C222.085 273.207 218.22 274.278 215.003 275.995C214.842 265.287 215.442 254.466 215.653 243.75C215.767 237.917 215.841 232.081 216.023 226.25C216.132 222.736 216.064 218.77 217.026 215.381C217.672 213.103 218.997 212.521 220.937 211.459Z"/>
	<path fill="#43B2CE" transform="scale(0.882813 0.882813)" d="M274.54 321.307C282.366 334.564 289.629 348.172 297.27 361.543C299.845 366.05 302.277 371.976 305.754 375.774L255.641 405.238L223.093 348.712L220.569 343.784C229.452 340.345 238.12 336.205 246.981 332.658C255.988 329.052 266.103 326.007 274.54 321.307Z"/>
	<defs>
		<linearGradient id="gradient_1" gradientUnits="userSpaceOnUse" x1="169.67046" y1="629.8479" x2="118.1173" y2="577.93842">
			<stop offset="0" stop-color="#DC1017"/>
			<stop offset="1" stop-color="#F1D269"/>
		</linearGradient>
	</defs>
	<path fill="url(#gradient_1)" transform="scale(0.882813 0.882813)" d="M138.805 565.799C147.72 564.009 157.955 566.984 165.396 572.001C167.836 573.645 170.006 575.655 172.023 577.788C178.546 586.25 182.773 596.498 181.342 607.38C179.925 618.159 174.575 627.429 165.812 633.891C158.105 639.574 148.489 643.222 138.814 641.783L138 641.652L137.145 641.53C134.059 641.05 130.994 639.928 128.12 638.721C125.811 637.678 123.68 636.286 121.519 634.972C115.117 629.814 110.151 623.905 107.468 616.044C104.025 605.958 105.447 595.741 110.054 586.354C110.805 585.97 111.508 585.576 112.328 585.357C117.896 583.868 124.185 580.012 128.774 576.549L129.498 575.998C132.045 574.166 135.323 571.385 136.124 568.2L136.299 567.389C137.29 567.023 137.977 566.439 138.805 565.799Z"/>
	<path fill="#4349ED" transform="scale(0.882813 0.882813)" d="M323.766 276.773L324.428 276.153C329.418 282.18 333.158 290.128 336.964 297C342.769 307.482 348.642 317.962 354.304 328.52C356.649 332.894 358.735 338.026 361.533 342.099L309.778 373.356L305.754 375.774C302.277 371.976 299.845 366.05 297.27 361.543C289.629 348.172 282.366 334.564 274.54 321.307L273.235 320.008L273.904 317.756C274.619 316.623 276.474 315.389 277.527 314.517C280.767 311.833 284.12 309.293 287.33 306.571C298.109 297.434 308.179 287.694 319.421 279.103L320.758 279.585C321.675 278.541 322.72 277.683 323.766 276.773Z"/>
	<path fill="#43B2CE" transform="scale(0.882813 0.882813)" d="M323.766 276.773C323.761 280.435 308.717 295.453 305.25 298.904C300.181 303.948 294.771 307.843 288.879 311.862C286.599 313.416 284.38 315.35 281.568 315.737L280.474 315.287L320.758 279.585C321.675 278.541 322.72 277.683 323.766 276.773Z"/>
	<path fill="#FF6945" transform="scale(0.882813 0.882813)" d="M277.96 242.382L317.947 270.621L318.138 271.102C319.456 272.449 320.939 273.73 321.666 275.5C321.511 277.73 321.045 277.686 319.421 279.103C308.179 287.694 298.109 297.434 287.33 306.571C284.12 309.293 280.767 311.833 277.527 314.517C276.474 315.389 274.619 316.623 273.904 317.756L270.245 319.144L270.54 314.018C259.109 319.035 246.601 321.88 234.707 325.644C228.996 327.451 222.381 330.647 216.513 331.405L215.003 275.995C218.22 274.278 222.085 273.207 225.511 271.97C231.638 269.756 237.823 267.586 243.892 265.222C247.055 262.29 251.523 259.943 255.166 257.612C262.904 252.661 270.628 247.94 277.96 242.382Z"/>
	<defs>
		<linearGradient id="gradient_2" gradientUnits="userSpaceOnUse" x1="316.21976" y1="298.88409" x2="275.71542" y2="291.47012">
			<stop offset="0" stop-color="#A6064A"/>
			<stop offset="1" stop-color="#DA4E68"/>
		</linearGradient>
	</defs>
	<path fill="url(#gradient_2)" transform="scale(0.882813 0.882813)" d="M318.138 271.102C319.456 272.449 320.939 273.73 321.666 275.5C321.511 277.73 321.045 277.686 319.421 279.103C308.179 287.694 298.109 297.434 287.33 306.571C284.12 309.293 280.767 311.833 277.527 314.517C276.474 315.389 274.619 316.623 273.904 317.756L270.245 319.144L270.54 314.018L270.557 313.656C274.594 311.601 279.02 306.559 282.388 303.461C288.357 297.969 294.388 292.543 300.471 287.177C305.686 282.576 311.295 278.386 316.386 273.656C317.278 272.827 317.702 272.241 318.138 271.102Z"/>
	<path fill="#F7E9E8" transform="scale(0.882813 0.882813)" d="M434.127 146.384C436.549 134.912 442.293 125.044 450.648 116.897C459.376 108.386 470.52 103.106 482.631 101.634C486.499 101.163 490.525 101.371 494.417 101.432C503.707 103.056 512.265 105.284 520.242 110.574C515.678 127.983 510.272 145.308 504.937 162.5C503.821 166.097 502.709 169.746 501.455 173.298C500.538 175.895 499.401 177.978 499.247 180.793L499.405 181.401C499.971 183.447 501.37 185.626 502.337 187.532C504.339 191.479 506.31 195.438 508.243 199.42C515.914 215.221 523.66 231.147 530.674 247.25L530.179 247.497L497.451 181.722L486.303 187.546L518.526 255.209C516.919 253.821 515.901 250.938 514.925 249.029C512.143 243.59 509.567 238.053 506.839 232.588C499.558 217.996 490.435 203.393 484.955 188.066L473.264 194.171C477.22 199.966 480.162 206.651 483.253 212.938C489.202 225.04 494.83 237.256 500.475 249.5C502.196 253.235 503.647 257.471 505.602 261.029C506.153 262.031 506.365 262.426 506.25 263.59L505.458 262.022L472.187 194.736L465.466 198.016L461.438 200.004C466.152 209.106 470.212 218.59 474.718 227.801C478.264 235.052 481.795 242.298 485.244 249.596C486.643 252.558 488.669 255.749 489.375 258.93C488.407 257.993 487.782 256.275 487.161 255.053C485.832 252.439 484.485 249.827 483.13 247.226C475.168 231.948 466.55 216.731 459.924 200.826C447.112 207.251 434.048 214.553 420.27 218.662C415.561 220.066 410.724 221.409 405.754 220.801C403.442 220.518 401.095 220.084 399.668 218.046C398.522 216.409 398.5 214.764 398.897 212.858C399.707 208.972 402.029 205.001 404.273 201.758C412.103 190.441 423.894 181.693 435.305 174.292C432.59 164.871 432.506 155.983 434.127 146.384Z"/>
	<path fill="#4338CA" transform="scale(0.882813 0.882813)" d="M437.846 182.592C438.93 183.946 439.602 186.346 440.441 187.96C441.807 190.586 443.538 193.092 445.154 195.572C439.692 197.977 434.582 200.077 428.757 201.438C426.682 201.578 424.56 201.448 422.863 200.135C422.336 199.095 421.99 198.769 422.064 197.563C422.478 190.846 433.081 186.753 437.411 182.981L437.846 182.592Z"/>
	<path fill="#4349ED" transform="scale(0.882813 0.882813)" d="M365.418 340.293L368.577 343.653L369.704 346.834L407.092 416.813L405.16 417.788L354.51 447.695L350.25 450.213C344.571 454.044 338.456 457.24 332.65 460.885C329.957 462.575 326.746 464.341 324.608 466.702C322.964 460.639 320.345 454.255 317.056 448.891C312.402 441.303 305.345 435.445 296.544 433.388C288.47 431.501 280.548 433.338 273.624 437.715L260.359 414.218C258.804 414.957 257.736 415.662 256.002 415.467L255.323 414.175L255.09 413.929L252.328 407.821L255.641 405.238L305.754 375.774L309.778 373.356L361.533 342.099L364.978 340.702L365.418 340.293Z"/>
	<path fill="#4338CA" transform="scale(0.882813 0.882813)" d="M369.704 346.834L407.092 416.813L405.16 417.788C399.31 410.11 368.873 352.503 365.75 351.045L362.46 353.33C363.236 351.722 363.753 351.15 365.291 350.206C366.956 349.183 368.255 348.145 369.704 346.834Z"/>
	<path fill="#FF9D38" transform="scale(0.882813 0.882813)" d="M365.418 340.293L368.577 343.653L369.704 346.834C368.255 348.145 366.956 349.183 365.291 350.206C363.753 351.15 363.236 351.722 362.46 353.33L316.491 381.025C314.596 381.716 313.133 382.399 311.545 383.653L260.359 414.218C258.804 414.957 257.736 415.662 256.002 415.467L255.323 414.175L255.09 413.929L252.328 407.821L255.641 405.238L305.754 375.774L309.778 373.356L361.533 342.099L364.978 340.702L365.418 340.293Z"/>
	<path fill="#DC4164" transform="scale(0.882813 0.882813)" d="M365.418 340.293L368.577 343.653L369.704 346.834C368.255 348.145 366.956 349.183 365.291 350.206C363.753 351.15 363.236 351.722 362.46 353.33L316.491 381.025C314.596 381.716 313.133 382.399 311.545 383.653L260.359 414.218C258.804 414.957 257.736 415.662 256.002 415.467L255.323 414.175L256.411 413.788C259.787 412.304 263.114 409.672 266.298 407.756C275.293 402.345 284.26 396.89 293.241 391.457C311.542 380.388 329.806 369.304 348.049 358.145C353.991 354.511 360.259 351.297 366.091 347.51C367.167 346.812 367.458 346.661 367.911 345.5C367.261 343.561 366.248 342.287 364.978 340.702L365.418 340.293Z"/>
	<path fill="#43B2CE" transform="scale(0.882813 0.882813)" d="M311.545 383.653C314.039 385.642 315.883 390.394 317.414 393.203C320.388 398.66 323.436 404.086 326.487 409.5C334.118 423.037 341.654 437.277 350.25 450.213C344.571 454.044 338.456 457.24 332.65 460.885C329.957 462.575 326.746 464.341 324.608 466.702C322.964 460.639 320.345 454.255 317.056 448.891C312.402 441.303 305.345 435.445 296.544 433.388C288.47 431.501 280.548 433.338 273.624 437.715L260.359 414.218L311.545 383.653Z"/>
	<path fill="#FF6945" transform="scale(0.882813 0.882813)" d="M790.583 195.211L791.155 194.881C803.754 188.751 820.518 188.417 833.599 192.985C847.995 197.387 860.282 208.692 867.208 221.859C874.466 235.66 877.117 252.997 872.47 268.061C867.772 283.29 857.147 295.093 843.067 302.368C835.717 306.165 827.497 308.517 819.234 309.128C814.884 309.691 810.623 309.371 806.298 308.791C802.775 308.154 799.217 307.664 795.902 306.257C793.127 305.459 790.629 304.481 788.021 303.242C781.934 300.392 776.545 296.409 771.858 291.62C763.479 283.788 756.216 270.935 754.504 259.514C753.498 252.805 752.831 246.011 754.824 239.397C755.23 235.087 757.232 230.262 758.988 226.327C765.209 212.38 776.246 200.769 790.583 195.211Z"/>
	<path fill="#FF9D38" transform="scale(0.882813 0.882813)" d="M806.298 308.791C803.924 305.357 801.56 302.356 800.569 298.184L800.414 297.5C799.515 293.711 799.674 288.824 800.326 284.979C801.783 276.395 806.518 267.857 813.69 262.767L814.25 262.382C823.075 256.225 832.508 255.43 842.86 256.724C854.511 260.553 861.924 267.971 867.572 278.725C859.929 271.917 852.627 266.14 841.83 266.669C834.03 267.052 825.781 270.366 820.595 276.367C815.61 282.134 812.93 288.602 813.472 296.251C813.656 298.849 814.593 301.394 815.818 303.662L816.105 304.205L819.234 309.128C814.884 309.691 810.623 309.371 806.298 308.791Z"/>
	<defs>
		<linearGradient id="gradient_3" gradientUnits="userSpaceOnUse" x1="830.28119" y1="259.87793" x2="775.41443" y2="222.48941">
			<stop offset="0" stop-color="#F2A84B"/>
			<stop offset="1" stop-color="#FFD99D"/>
		</linearGradient>
	</defs>
	<path fill="url(#gradient_3)" transform="scale(0.882813 0.882813)" d="M771.689 288.341L770.855 288.263C769.481 286.917 769.23 285.145 768.367 283.5C767.266 281.4 765.703 279.508 764.738 277.341C762.775 272.932 762.009 267.049 761.689 262.25C760.69 247.286 764.961 233.982 775.049 222.75C785.574 211.032 801.924 205.036 817.363 203.536C821.379 203.146 825.275 203.56 829.208 203.302L829.932 203.248C834.843 203.877 839.371 205.072 844.027 206.693C852.652 209.694 860.184 215.602 866.315 222.231C858.984 218.532 852.381 214.085 844.165 212.329C836.228 209.172 825.198 209.625 817 211.432C813.032 212.306 809.156 213.256 805.411 214.862C791.135 220.983 777.369 232.577 771.479 247.266L770.678 249.318C769.126 253.219 768.53 257.152 767.862 261.273C766.884 267.312 767.082 274.726 768.906 280.613C769.711 283.215 771.05 285.694 771.689 288.341Z"/>
	<path fill="#FF9D38" transform="scale(0.882813 0.882813)" d="M788.021 303.242C787.642 302.546 787.32 301.887 786.758 301.317C782.006 296.496 778.056 290.223 776.23 283.673C773.472 273.778 775.745 262.457 780.773 253.628L781.264 252.784C782.879 249.966 784.798 246.719 786.875 244.236L787.503 243.502C788.068 242.787 788.48 242.107 789.166 241.488C791.199 239.655 792.973 237.602 795.448 236.352C797.922 235.103 800.121 233.357 802.631 232.149C814.518 226.43 825.438 227.139 838.104 228.137C845.851 230.327 852.667 232.89 858.895 238.241C859.201 239.427 858.997 239.417 860.033 240.201C861.349 241.195 862.29 242.507 863.427 243.686C865.963 246.313 867.808 249.933 869.801 252.987C867.381 250.518 865.033 248.206 862.375 246.002L861.99 245.65C860.235 244.151 857.859 242.845 855.655 242.213C851.468 241.014 847.699 239.488 843.347 238.733C833.045 236.946 821.586 239.414 812.436 244.239C805.915 247.677 800.003 253.178 795.688 259.105L795.203 259.755C791.365 264.952 789.066 270.64 787.994 277L787.855 277.779C787.193 281.704 787.468 285.637 788.329 289.5L788.509 290.337C789.208 293.49 790.41 296.603 791.952 299.438C793.044 301.447 795.594 304.06 795.902 306.257C793.127 305.459 790.629 304.481 788.021 303.242Z"/>
	<path fill="#FF9D38" transform="scale(0.882813 0.882813)" d="M790.583 195.211L791.155 194.881C803.754 188.751 820.518 188.417 833.599 192.985L834.097 193.87C837.162 195.407 840.442 196.297 843.235 198.38C843.959 198.919 843.51 198.623 844.305 198.943C846.171 199.695 847.473 201.476 849.269 202.374C849.905 202.692 850.305 203.132 850.818 203.605L852.369 204.834C853.524 205.705 854.332 206.659 855.196 207.808L854.773 208.461C854.352 209.145 854.158 209.59 853.97 210.351C852.84 210.233 852.752 210.083 851.856 209.492L847.635 207.233C846.404 206.517 847.66 207.179 846 206.75L844.25 206C842.726 205.337 841.157 205.183 839.75 204.255L839.289 204.354C838.014 204.49 834.42 203.347 833 203C831.806 202.708 831.078 202.876 829.932 203.248L829.208 203.302C825.275 203.56 821.379 203.146 817.363 203.536C801.924 205.036 785.574 211.032 775.049 222.75C764.961 233.982 760.69 247.286 761.689 262.25C762.009 267.049 762.775 272.932 764.738 277.341C765.703 279.508 767.266 281.4 768.367 283.5C769.23 285.145 769.481 286.917 770.855 288.263L771.689 288.341C772.421 289.901 772.302 289.931 771.858 291.62C763.479 283.788 756.216 270.935 754.504 259.514C753.498 252.805 752.831 246.011 754.824 239.397C755.23 235.087 757.232 230.262 758.988 226.327C765.209 212.38 776.246 200.769 790.583 195.211Z"/>
	<path fill="#F8D54C" transform="scale(0.882813 0.882813)" d="M754.824 239.397C755.23 235.087 757.232 230.262 758.988 226.327C765.209 212.38 776.246 200.769 790.583 195.211C788.846 197.523 786.109 198.384 783.587 199.65C779.769 201.568 775.319 204.844 773.397 208.704C771.467 212.58 768.825 216.648 765.648 219.525L765.172 220.084C764.604 220.719 764.933 220.448 764.148 220.735C761.994 221.526 760.55 225.311 759.715 227.278C758.777 229.486 757.883 231.688 757.226 233.992L755.554 239.586L754.824 239.397Z"/>
	<path fill="#D68DFF" transform="scale(0.882813 0.882813)" d="M228.151 536.664L506.09 685.76C507.664 686.806 509.085 687.751 510.869 688.393L511.659 930.339L228.496 762.667L228.151 536.664Z"/>
	<path fill="#4338CA" transform="scale(0.882813 0.882813)" d="M322.23 648.419L321.382 648.075C319.569 647.27 317.241 644.671 316.645 642.75C315.461 638.933 315.351 626.633 317.209 623.112C318.158 621.313 320.212 619.825 322.17 619.368C324.164 618.904 326.003 619.119 328 619.402L328.583 619.478C332.249 620.062 338.05 624.538 341.336 626.414C351.06 631.966 360.798 637.505 370.581 642.948C375.572 645.725 380.908 647.957 385.666 651.143C387.589 652.43 389.798 654.557 391.073 656.492C393.841 660.694 395.057 669.025 393.978 673.937C393.481 676.197 390.845 678.271 388.866 679.302C387.747 679.885 386.432 680.154 385.211 680.441C386.49 675.757 386.039 670.384 386.051 665.549C384.513 664.734 383.467 663.16 382.257 661.929C380.438 660.079 378.373 658.496 376.174 657.126C369.483 652.958 362.086 649.595 355.14 645.843C343.833 639.737 333.045 633.069 320.927 628.622C319.564 634.183 320.143 643.161 322.23 648.419Z"/>
	<path fill="#FEA5A1" transform="scale(0.882813 0.882813)" d="M320.927 628.622C322.258 626.988 323.378 625.928 325.569 625.722C328.836 625.416 373.477 650.395 379.314 654.075C380.701 654.949 381.903 655.933 383.028 657.129C385.436 659.69 385.932 662.094 386.051 665.549C384.513 664.734 383.467 663.16 382.257 661.929C380.438 660.079 378.373 658.496 376.174 657.126C369.483 652.958 362.086 649.595 355.14 645.843C343.833 639.737 333.045 633.069 320.927 628.622Z"/>
	<path fill="#FF9D38" transform="scale(0.882813 0.882813)" d="M322.23 648.419C320.143 643.161 319.564 634.183 320.927 628.622C333.045 633.069 343.833 639.737 355.14 645.843C362.086 649.595 369.483 652.958 376.174 657.126C378.373 658.496 380.438 660.079 382.257 661.929C383.467 663.16 384.513 664.734 386.051 665.549C386.039 670.384 386.49 675.757 385.211 680.441L385.074 680.476C383.431 681.163 382.293 681.62 380.5 681.86C377.021 680.821 373.832 678.489 370.715 676.633C366.233 673.965 361.677 671.394 357.12 668.858C347.088 663.275 336.368 658.255 326.65 652.184C324.933 651.111 323.62 649.876 322.23 648.419Z"/>
	<path fill="#FF6945" transform="scale(0.882813 0.882813)" d="M531.716 260.602C538.19 263.534 544.405 266.97 550.851 269.953C564.286 276.17 577.976 282.031 591.57 287.895C645.794 311.287 700.747 332.982 755.046 356.18C772.907 363.81 790.94 371.044 808.863 378.529C817.15 381.99 826.381 385.081 834.126 389.516L834.242 389.832C835.606 390.874 836.544 391.749 837.516 393.168C819.511 424.606 802.424 456.628 784.627 488.196C781.02 494.595 777.449 501.026 773.978 507.5C771.062 512.937 768.314 518.572 764.724 523.604C766.874 524.892 770.563 526.555 772.101 528.424L511.343 687.18L510.869 688.393C509.085 687.751 507.664 686.806 506.09 685.76L228.151 536.664L163.56 407.655C162.464 405.553 161.191 403.442 160.471 401.179L167.412 399.363C185.444 408.978 203.526 418.49 221.755 427.728C231.064 432.445 240.143 437.455 249.316 442.418C253.171 444.504 257.522 446.326 261.112 448.786L267.315 442.422L273.624 437.715C280.548 433.338 288.47 431.501 296.544 433.388C305.345 435.445 312.402 441.303 317.056 448.891C320.345 454.255 322.964 460.639 324.608 466.702C326.746 464.341 329.957 462.575 332.65 460.885C338.456 457.24 344.571 454.044 350.25 450.213L354.51 447.695L405.16 417.788L407.092 416.813L415.377 411.843C420.204 409.386 424.83 406.26 429.5 403.493C437.343 398.845 445.242 394.297 453.012 389.527C456.724 387.248 460.741 384.017 464.651 382.178C465.536 381.762 466.555 381.733 467.514 381.78L469.113 380.938C469.97 377.309 472.399 373.58 474.123 370.261C477.7 363.369 481.367 356.536 484.983 349.666C494.386 331.802 503.621 313.857 512.943 295.952C517.627 286.957 522.579 278.137 527.048 269.029C528.488 266.154 529.842 263.227 531.716 260.602Z"/>
	<path fill="#F7E9E8" transform="scale(0.882813 0.882813)" d="M647.272 507.662L692.993 530.326L675.09 539.514C668.26 534.524 659.639 531.014 652.067 527.171C644.872 523.519 637.813 519.43 630.398 516.257L647.272 507.662Z"/>
	<path fill="#4349ED" transform="scale(0.882813 0.882813)" d="M446.475 496.84L467.059 507.616L558.997 557.243L553.045 565.412C549.196 563.429 545.584 560.945 541.749 558.901C517.367 545.905 493.026 532.831 468.646 519.838C462.201 516.403 455.835 512.795 449.396 509.337C445.214 507.091 440.915 504.573 436.364 503.194L446.475 496.84Z"/>
	<path fill="#1B9563" transform="scale(0.882813 0.882813)" d="M630.398 516.257C637.813 519.43 644.872 523.519 652.067 527.171C659.639 531.014 668.26 534.524 675.09 539.514L692.993 530.326C694.527 537.535 692.563 545.985 693.367 553.411C693.396 557.818 693.76 562.501 693.261 566.872L693.522 567.465L663.654 585.943L658.846 589.221C658.604 584.239 657.634 579.777 655.793 575.109C652.848 567.644 647.696 564.858 642 559.973C633.772 552.916 625.998 545.227 615.844 540.871L615.958 523L616.936 522.517C621.704 521.133 626.076 518.642 630.398 516.257Z"/>
	<path fill="#CDCDB1" transform="scale(0.882813 0.882813)" d="M630.398 516.257C637.813 519.43 644.872 523.519 652.067 527.171C659.639 531.014 668.26 534.524 675.09 539.514L671.385 541.581C668.636 543.001 665.811 544.695 662.902 545.729L616.936 522.517C621.704 521.133 626.076 518.642 630.398 516.257Z"/>
	<path fill="#1B9563" transform="scale(0.882813 0.882813)" d="M692.993 530.326C694.527 537.535 692.563 545.985 693.367 553.411C693.396 557.818 693.76 562.501 693.261 566.872L693.522 567.465L663.654 585.943C663.076 581.313 663.323 576.381 663.26 571.709C663.151 563.609 663.052 555.508 662.996 547.407L662.902 545.729C665.811 544.695 668.636 543.001 671.385 541.581L675.09 539.514L692.993 530.326Z"/>
	<defs>
		<linearGradient id="gradient_4" gradientUnits="userSpaceOnUse" x1="658.19171" y1="557.55701" x2="686.47412" y2="575.10175">
			<stop offset="0" stop-color="#097845"/>
			<stop offset="1" stop-color="#026E5B"/>
		</linearGradient>
	</defs>
	<path fill="url(#gradient_4)" transform="scale(0.882813 0.882813)" d="M662.996 547.407L671.375 555.316L671.453 567.426L693.02 554.952C693.008 558.748 692.552 563.162 693.261 566.872L693.522 567.465L663.654 585.943C663.076 581.313 663.323 576.381 663.26 571.709C663.151 563.609 663.052 555.508 662.996 547.407Z"/>
	<path fill="#A288FF" transform="scale(0.882813 0.882813)" d="M436.364 503.194C440.915 504.573 445.214 507.091 449.396 509.337C455.835 512.795 462.201 516.403 468.646 519.838C493.026 532.831 517.367 545.905 541.749 558.901C545.584 560.945 549.196 563.429 553.045 565.412L547.356 575.343L545.353 580.742C539.977 579.013 535.628 577.81 529.899 578.24C527.504 576.287 524.418 575.034 521.69 573.584C516.949 571.065 512.205 568.541 507.5 565.954C492.001 557.432 476.286 549.219 460.85 540.6C450.61 534.881 440.366 529.114 429.911 523.794C424.862 521.225 419.746 518.356 414.349 516.62L425.344 509.73L436.364 503.194Z"/>
	<path fill="#4349ED" transform="scale(0.882813 0.882813)" d="M425.344 509.73C438.109 517.389 451.863 523.922 465 530.966C485.359 541.884 505.49 553.246 525.872 564.111C530.939 566.811 536.02 569.501 541.156 572.067C542.908 572.942 546.13 573.92 547.356 575.343L545.353 580.742C539.977 579.013 535.628 577.81 529.899 578.24C527.504 576.287 524.418 575.034 521.69 573.584C516.949 571.065 512.205 568.541 507.5 565.954C492.001 557.432 476.286 549.219 460.85 540.6C450.61 534.881 440.366 529.114 429.911 523.794C424.862 521.225 419.746 518.356 414.349 516.62L425.344 509.73Z"/>
	<path fill="#A288FF" transform="scale(0.882813 0.882813)" d="M404.905 523.356L414.349 516.62C419.746 518.356 424.862 521.225 429.911 523.794C440.366 529.114 450.61 534.881 460.85 540.6C476.286 549.219 492.001 557.432 507.5 565.954C512.205 568.541 516.949 571.065 521.69 573.584C524.418 575.034 527.504 576.287 529.899 578.24C524.814 579.412 520.246 580.942 515.508 583.171L504.688 589.75L496.883 596.731L496.436 597.263C494.715 599.362 492.594 604.563 490.5 605.451L487.645 605.154C482.272 605.031 476.167 604.525 470.899 605.597L464.271 593.414C461.713 589.458 458.727 584.642 457.233 580.174L458.008 577.218C457.698 575.536 457.969 573.59 457.924 571.867C457.856 569.327 457.507 566.769 457.211 564.247C454.953 558.331 453.126 553.399 449.619 548.064C446.014 544.578 441.897 542.24 437.471 539.948L404.905 523.356Z"/>
	<path fill="#4349ED" transform="scale(0.882813 0.882813)" d="M449.619 548.064C452.403 548.286 454.446 550.392 456.817 551.734C461.815 554.561 466.819 557.374 471.849 560.144C481.96 565.713 492.294 570.965 502.516 576.334C506.797 578.583 511.437 580.588 515.508 583.171L504.688 589.75C502.667 587.326 462.406 566.238 457.211 564.247C454.953 558.331 453.126 553.399 449.619 548.064Z"/>
	<path fill="#A288FF" transform="scale(0.882813 0.882813)" d="M457.211 564.247C462.406 566.238 502.667 587.326 504.688 589.75L496.883 596.731L496.436 597.263C494.715 599.362 492.594 604.563 490.5 605.451L487.645 605.154C482.272 605.031 476.167 604.525 470.899 605.597L464.271 593.414C461.713 589.458 458.727 584.642 457.233 580.174L458.008 577.218C457.698 575.536 457.969 573.59 457.924 571.867C457.856 569.327 457.507 566.769 457.211 564.247Z"/>
	<path fill="#4349ED" transform="scale(0.882813 0.882813)" d="M458.008 577.218C465.275 582.309 474.078 586.012 482 590.019C486.41 592.249 492.033 596.041 496.883 596.731L496.436 597.263C494.715 599.362 492.594 604.563 490.5 605.451L487.645 605.154C482.272 605.031 476.167 604.525 470.899 605.597L464.271 593.414C461.713 589.458 458.727 584.642 457.233 580.174L458.008 577.218Z"/>
	<path fill="#A288FF" transform="scale(0.882813 0.882813)" d="M464.271 593.414C469.424 594.988 474.16 597.57 478.921 600.051C481.846 601.576 485.113 603.019 487.645 605.154C482.272 605.031 476.167 604.525 470.899 605.597L464.271 593.414Z"/>
	<path fill="#F7E9E8" transform="scale(0.882813 0.882813)" d="M764.724 523.604C766.874 524.892 770.563 526.555 772.101 528.424L511.343 687.18L510.869 688.393C509.085 687.751 507.664 686.806 506.09 685.76L426.256 548.205C430.191 547.124 433.356 545.819 436.783 543.578L437.471 539.948C441.897 542.24 446.014 544.578 449.619 548.064C453.126 553.399 454.953 558.331 457.211 564.247C457.507 566.769 457.856 569.327 457.924 571.867C457.969 573.59 457.698 575.536 458.008 577.218L457.233 580.174C458.727 584.642 461.713 589.458 464.271 593.414L470.899 605.597C476.167 604.525 482.272 605.031 487.645 605.154L490.5 605.451C492.594 604.563 494.715 599.362 496.436 597.263L496.883 596.731L504.688 589.75L515.508 583.171C520.246 580.942 524.814 579.412 529.899 578.24C535.628 577.81 539.977 579.013 545.353 580.742L547.356 575.343L553.045 565.412L558.997 557.243C566.692 548.58 574.67 542.629 585.681 538.856C596.196 535.916 605.757 536.827 615.844 540.871C625.998 545.227 633.772 552.916 642 559.973C647.696 564.858 652.848 567.644 655.793 575.109C657.634 579.777 658.604 584.239 658.846 589.221L663.654 585.943L693.522 567.465L693.261 566.872C693.76 562.501 693.396 557.818 693.367 553.411C696.08 554.698 698.868 556.086 701.75 556.955C703.891 557.601 706.412 557.747 708.42 558.661L758.174 528.791C760.964 527.451 762.627 525.817 764.724 523.604Z"/>
	<path fill="#B86455" transform="scale(0.882813 0.882813)" d="M693.367 553.411C696.08 554.698 698.868 556.086 701.75 556.955C703.891 557.601 706.412 557.747 708.42 558.661L693.522 567.465L693.261 566.872C693.76 562.501 693.396 557.818 693.367 553.411Z"/>
	<path fill="white" transform="scale(0.882813 0.882813)" d="M560.711 591.968C568.29 586.749 577.352 585.329 586.343 585.934C597.591 586.69 610.638 592.886 618.052 601.522L623.5 607.063C624.231 607.828 624.532 608.223 625.498 608.712L626.191 609.026C622.866 611.009 619.59 613.071 616.277 615.074C614.814 615.959 613.102 617.309 611.469 617.781C607.877 619.024 604.516 621.482 601.25 623.424C595.767 626.686 590.214 629.868 584.692 633.063C584.024 615.415 571.789 604.015 560.711 591.968Z"/>
	<path fill="#FF6945" transform="scale(0.882813 0.882813)" d="M437.471 539.948C441.897 542.24 446.014 544.578 449.619 548.064C453.126 553.399 454.953 558.331 457.211 564.247C457.507 566.769 457.856 569.327 457.924 571.867C457.969 573.59 457.698 575.536 458.008 577.218L457.233 580.174C458.727 584.642 461.713 589.458 464.271 593.414L470.899 605.597L482.69 627.324C496.444 627.445 509.274 628.038 522.576 631.906C529.45 633.905 535.826 636.431 540.925 641.635C544.546 645.332 548.061 649.649 550.626 654.145C556.702 650.817 562.541 646.955 568.481 643.381C573.829 640.163 579.882 637.035 584.692 633.063C590.214 629.868 595.767 626.686 601.25 623.424C604.516 621.482 607.877 619.024 611.469 617.781L511.009 679.437C511.379 682.087 511.435 684.516 511.343 687.18L510.869 688.393C509.085 687.751 507.664 686.806 506.09 685.76L426.256 548.205C430.191 547.124 433.356 545.819 436.783 543.578L437.471 539.948Z"/>
	<path fill="white" transform="scale(0.882813 0.882813)" d="M437.471 539.948C441.897 542.24 446.014 544.578 449.619 548.064C453.126 553.399 454.953 558.331 457.211 564.247C457.507 566.769 457.856 569.327 457.924 571.867C457.969 573.59 457.698 575.536 458.008 577.218L457.233 580.174L436.783 543.578L437.471 539.948Z"/>
	<path fill="white" transform="scale(0.882813 0.882813)" d="M482.69 627.324C496.444 627.445 509.274 628.038 522.576 631.906C529.45 633.905 535.826 636.431 540.925 641.635C544.546 645.332 548.061 649.649 550.626 654.145L510.735 678.583C508.037 672.174 504.332 666.048 500.979 659.96C494.96 649.034 488.824 638.184 482.69 627.324Z"/>
	<path fill="#FEA5A1" transform="scale(0.882813 0.882813)" d="M415.377 411.843C420.204 409.386 424.83 406.26 429.5 403.493C437.343 398.845 445.242 394.297 453.012 389.527C456.724 387.248 460.741 384.017 464.651 382.178C465.536 381.762 466.555 381.733 467.514 381.78C467.407 382.65 466.818 385.001 467.3 385.669C468.232 386.96 471.557 388.019 473.06 388.775C480.814 392.673 488.638 396.415 496.419 400.256C566.402 434.803 636.767 468.445 707.237 501.981C719.294 507.719 731.398 513.437 743.5 519.075C746.755 520.591 749.998 522.135 753.26 523.636C755.135 524.499 757 524.924 758.329 526.585C758.211 527.284 758.179 527.544 757.765 528.142L757.303 528.386C756.127 528.917 755.085 529.069 753.831 528.717C752.148 528.245 750.519 527.118 748.919 526.383C744.949 524.559 740.961 522.786 737 520.946C721.309 513.66 705.571 506.48 690 498.939C643.479 476.408 596.511 454.783 549.883 432.472C533.898 424.824 517.919 417.188 502.017 409.37C489.609 403.269 477.137 396.672 464.268 391.625C459.983 393.31 455.502 396.85 451.485 399.288C441.833 405.144 432.147 410.969 422.438 416.73C403.838 427.769 385.311 438.937 366.651 449.875C356.547 455.797 345.531 461.346 335.89 467.957C339.715 468.003 343.511 467.914 347.25 468.824L348.028 469.003C356.311 471.023 363.287 478.071 367.517 485.191C371.532 491.947 373.452 499.299 373.639 507.116C379.637 510.168 385.668 513.174 391.585 516.378C395.816 518.669 400.369 521.888 404.905 523.356L437.471 539.948L436.783 543.578C433.356 545.819 430.191 547.124 426.256 548.205L506.09 685.76L228.151 536.664L163.56 407.655C162.464 405.553 161.191 403.442 160.471 401.179L167.412 399.363C185.444 408.978 203.526 418.49 221.755 427.728C231.064 432.445 240.143 437.455 249.316 442.418C253.171 444.504 257.522 446.326 261.112 448.786L267.315 442.422L273.624 437.715C280.548 433.338 288.47 431.501 296.544 433.388C305.345 435.445 312.402 441.303 317.056 448.891C320.345 454.255 322.964 460.639 324.608 466.702C326.746 464.341 329.957 462.575 332.65 460.885C338.456 457.24 344.571 454.044 350.25 450.213L354.51 447.695L405.16 417.788L407.092 416.813L415.377 411.843Z"/>
	<path fill="#F7E9E8" transform="scale(0.882813 0.882813)" d="M335.89 467.957C339.715 468.003 343.511 467.914 347.25 468.824L348.028 469.003C356.311 471.023 363.287 478.071 367.517 485.191C371.532 491.947 373.452 499.299 373.639 507.116L320.437 479.138C324.913 474.952 330.326 470.576 335.89 467.957Z"/>
	<path fill="#F7E9E8" transform="scale(0.882813 0.882813)" d="M273.624 437.715C280.548 433.338 288.47 431.501 296.544 433.388C305.345 435.445 312.402 441.303 317.056 448.891C320.345 454.255 322.964 460.639 324.608 466.702C322.1 470.605 318.056 473.14 314.522 475.988C303.087 470.479 291.914 464.525 280.541 458.911C277.36 457.34 262.335 450.915 261.112 448.786L267.315 442.422L273.624 437.715Z"/>
	<path fill="#FEA5A1" transform="scale(0.882813 0.882813)" d="M531.716 260.602C538.19 263.534 544.405 266.97 550.851 269.953C564.286 276.17 577.976 282.031 591.57 287.895C645.794 311.287 700.747 332.982 755.046 356.18C772.907 363.81 790.94 371.044 808.863 378.529C817.15 381.99 826.381 385.081 834.126 389.516L834.242 389.832L762.547 518.947C752.837 514.146 742.908 509.801 733.133 505.136C685.686 482.493 638.137 460.048 590.595 437.613C582.315 433.706 573.888 430.075 565.636 426.122C537.979 412.872 510.486 398.852 482.391 386.578C478.384 384.828 473.318 381.669 469.113 380.938C469.97 377.309 472.399 373.58 474.123 370.261C477.7 363.369 481.367 356.536 484.983 349.666C494.386 331.802 503.621 313.857 512.943 295.952C517.627 286.957 522.579 278.137 527.048 269.029C528.488 266.154 529.842 263.227 531.716 260.602Z"/>
</svg>
